# Blender 4.4.1
# www.blender.org
mtllib AttackTu.mtl
o 立方体.002
v -0.812878 2.964400 -0.204255
v -0.812878 1.051403 -0.204256
v -0.812878 2.964400 0.240170
v -0.812878 1.051403 0.240170
v 0.812878 2.964400 -0.204255
v 0.812878 1.051403 -0.204256
v 0.812878 2.964400 0.240170
v 0.812878 1.051403 0.240170
v -0.000104 1.044036 0.151260
v -0.000104 -0.009137 0.151260
v -0.000104 1.044036 -0.136641
v -0.000104 -0.009137 -0.136641
v -1.053278 1.044036 0.151260
v -1.053278 1.044036 -0.136641
v -1.053278 1.044036 0.151260
v -0.000104 -0.009137 0.151260
v -0.000104 -0.009137 -0.136641
v -1.053278 1.044036 -0.136641
v 0.000104 1.044036 -0.136641
v 0.000104 -0.009137 -0.136641
v 0.000104 1.044036 0.151260
v 0.000104 -0.009137 0.151260
v 1.053278 1.044036 -0.136641
v 1.053278 1.044036 0.151260
v 1.053278 1.044036 -0.136641
v 0.000104 -0.009137 -0.136641
v 0.000104 -0.009137 0.151260
v 1.053278 1.044036 0.151260
vn -1.0000 -0.0000 -0.0000
vn -0.0000 -0.0000 1.0000
vn 1.0000 -0.0000 -0.0000
vn -0.0000 -0.0000 -1.0000
vn -0.0000 1.0000 -0.0000
vn -0.0000 -1.0000 -0.0000
vn -0.7071 -0.7071 -0.0000
vn 0.7071 -0.7071 -0.0000
vt 0.190620 0.007376
vt 0.373864 0.190620
vt 0.190620 0.190620
vt 0.190620 0.373864
vt 0.373864 0.373864
vt 0.190620 0.557108
vt 0.373864 0.557108
vt 0.190620 0.740352
vt 0.007376 0.557108
vt 0.007376 0.373864
vt 0.557108 0.373864
vt 0.814484 0.007376
vt 0.693172 0.128688
vt 0.693172 0.007376
vt 0.693172 0.371312
vt 0.814484 0.492624
vt 0.693172 0.492624
vt 0.814484 0.128688
vt 0.693172 0.250000
vt 0.571860 0.371312
vt 0.571860 0.250000
vt 0.935796 0.371312
vt 0.935796 0.250000
vt 0.693172 0.507376
vt 0.814484 0.628688
vt 0.693172 0.628688
vt 0.693172 0.871312
vt 0.814484 0.992624
vt 0.693172 0.992624
vt 0.693172 0.750000
vt 0.693172 0.750000
vt 0.571860 0.871312
vt 0.571860 0.750000
vt 0.935796 0.750000
vt 0.935796 0.871312
vt 0.373864 0.007376
vt 0.373864 0.740352
vt 0.557108 0.557108
vt 0.814484 0.507376
s 0
usemtl attack
f 1/1/1 4/2/1 3/3/1
f 4/2/2 7/4/2 3/3/2
f 8/5/3 5/6/3 7/4/3
f 6/7/4 1/8/4 5/6/4
f 7/4/5 1/9/5 3/10/5
f 4/11/6 6/7/6 8/5/6
f 10/12/3 11/13/3 9/14/3
f 15/15/2 16/16/2 9/17/2
f 11/13/4 17/18/4 18/19/4
f 14/19/5 9/20/5 11/21/5
f 18/19/5 13/15/5 14/19/5
f 16/22/7 18/19/7 17/23/7
f 12/23/5 16/22/5 17/23/5
f 19/24/1 22/25/1 21/26/1
f 25/27/4 26/28/4 19/29/4
f 21/26/2 27/25/2 28/30/2
f 24/31/5 19/32/5 21/33/5
f 28/30/5 23/27/5 24/31/5
f 27/34/8 25/27/8 28/30/8
f 22/34/5 26/35/5 27/34/5
f 1/1/1 2/36/1 4/2/1
f 4/2/2 8/5/2 7/4/2
f 8/5/3 6/7/3 5/6/3
f 6/7/4 2/37/4 1/8/4
f 7/4/5 5/6/5 1/9/5
f 4/11/6 2/38/6 6/7/6
f 10/12/3 12/18/3 11/13/3
f 9/17/5 13/15/5 15/15/5
f 16/16/5 10/16/5 9/17/5
f 11/13/5 12/18/5 17/18/5
f 18/19/5 14/19/5 11/13/5
f 14/19/5 13/15/5 9/20/5
f 18/19/5 15/15/5 13/15/5
f 16/22/7 15/15/7 18/19/7
f 12/23/5 10/22/5 16/22/5
f 19/24/1 20/39/1 22/25/1
f 19/29/5 23/27/5 25/27/5
f 26/28/5 20/28/5 19/29/5
f 21/26/5 22/25/5 27/25/5
f 28/30/5 24/31/5 21/26/5
f 24/31/5 23/27/5 19/32/5
f 28/30/5 25/27/5 23/27/5
f 27/34/8 26/35/8 25/27/8
f 22/34/5 20/35/5 26/35/5
