# Blender 4.4.1
# www.blender.org
mtllib SpeedTu.mtl
o 立方体
v -3.306694 -1.657958 0.130478
v -3.306694 4.955431 0.130478
v -3.306694 -1.657958 -0.130478
v -3.306694 4.955431 -0.130478
v 3.306694 -1.657958 0.130478
v 3.306694 4.955431 0.130478
v 3.306694 -1.657958 -0.130478
v 3.306694 4.955431 -0.130478
vn -1.0000 -0.0000 -0.0000
vn -0.0000 -0.0000 -1.0000
vn 1.0000 -0.0000 -0.0000
vn -0.0000 -0.0000 1.0000
vn -0.0000 -1.0000 -0.0000
vn -0.0000 1.0000 -0.0000
vt 0.500000 0.004293
vt 0.252146 0.252146
vt 0.252147 0.004293
vt 0.500000 0.252146
vt 0.252146 0.500000
vt 0.500000 0.500000
vt 0.252146 0.747854
vt 0.500000 0.747854
vt 0.252146 0.995707
vt 0.004293 0.747854
vt 0.004293 0.500000
vt 0.747854 0.500000
vt 0.500000 0.995707
vt 0.747854 0.747854
s 0
usemtl speed
f 2/1/1 3/2/1 1/3/1
f 4/4/2 7/5/2 3/2/2
f 8/6/3 5/7/3 7/5/3
f 6/8/4 1/9/4 5/7/4
f 7/5/5 1/10/5 3/11/5
f 4/12/6 6/8/6 8/6/6
f 2/1/1 4/4/1 3/2/1
f 4/4/2 8/6/2 7/5/2
f 8/6/3 6/8/3 5/7/3
f 6/8/4 2/13/4 1/9/4
f 7/5/5 5/7/5 1/10/5
f 4/12/6 2/14/6 6/8/6
