# Blender 4.4.1
# www.blender.org
mtllib block.mtl
o 立方体
v 0.544124 -0.542980 0.523516
v 0.544124 0.602501 0.523516
v -0.581763 -0.542980 0.523516
v -0.581763 0.602501 0.523516
v 0.544124 -0.542980 -0.548427
v 0.544124 0.602501 -0.548427
v -0.581763 -0.542980 -0.548427
v -0.581763 0.602501 -0.548427
vn -0.0000 -0.0000 1.0000
vn -1.0000 -0.0000 -0.0000
vn -0.0000 -0.0000 -1.0000
vn 1.0000 -0.0000 -0.0000
vn -0.0000 -1.0000 -0.0000
vn -0.0000 1.0000 -0.0000
vt 0.252147 0.004293
vt 0.500000 0.004293
vt 0.500000 0.252146
vt 0.252146 0.252146
vt 0.500000 0.500000
vt 0.252146 0.500000
vt 0.500000 0.747854
vt 0.252146 0.747854
vt 0.500000 0.995707
vt 0.252146 0.995707
vt 0.004293 0.500000
vt 0.004293 0.747854
vt 0.747854 0.500000
vt 0.747854 0.747854
s 0
usemtl マテリアル.001
f 1/1/1 2/2/1 4/3/1 3/4/1
f 3/4/2 4/3/2 8/5/2 7/6/2
f 7/6/3 8/5/3 6/7/3 5/8/3
f 5/8/4 6/7/4 2/9/4 1/10/4
f 3/11/5 7/6/5 5/8/5 1/12/5
f 8/5/6 4/13/6 2/14/6 6/7/6
