# Blender 4.4.1
# www.blender.org
mtllib needle_Body.mtl
o 立方体.003
v -0.113029 0.051919 0.317661
v -0.113029 0.085735 0.355965
v -0.113029 0.240891 0.275686
v -0.178636 0.051919 0.317661
v -0.178636 0.240891 0.275686
v -0.178636 0.085735 0.355965
v -0.178636 0.274707 0.313989
v -0.113029 0.274707 0.313989
v -0.391519 0.282123 0.246561
v -0.397207 0.283557 -0.246325
v 0.344482 0.287537 0.245067
v 0.342439 0.290691 -0.247098
v -0.480065 -0.242338 0.307349
v 0.435015 -0.242338 -0.311498
v -0.480065 -0.242338 -0.311497
v 0.435015 -0.242338 0.307349
v -0.022525 0.274964 -0.265805
v -0.022525 0.285051 0.260986
v -0.022525 -0.242338 0.307349
v -0.022525 -0.242338 -0.311498
v -0.251296 0.283424 0.261046
v -0.251296 -0.242338 0.307349
v -0.251296 0.282773 -0.265805
v -0.251296 -0.242338 -0.311497
v 0.206245 0.276916 -0.264114
v 0.206245 -0.242338 -0.311498
v 0.206245 0.285051 0.262619
v 0.206245 -0.242338 0.307349
v 0.435015 0.066100 -0.311498
v -0.480065 0.066100 0.307349
v -0.480065 0.066100 -0.311497
v 0.435015 0.066100 0.307349
v -0.022525 0.066100 0.307349
v -0.022525 0.066100 -0.311498
v -0.251296 0.066100 -0.311497
v -0.251296 0.066100 0.307349
v 0.206245 0.066100 0.307349
v 0.206245 0.066100 -0.311498
v -0.411278 0.284726 -0.002074
v 0.362927 0.293187 -0.002074
v -0.480065 -0.242338 -0.002074
v 0.435015 -0.242338 -0.002074
v -0.022525 0.374538 -0.002074
v -0.251296 0.374538 -0.002074
v 0.206245 0.374538 -0.002074
v -0.480065 0.066100 -0.002074
v 0.435015 0.066100 -0.002074
v -0.410938 0.282773 -0.156786
v -0.480065 -0.242338 -0.156786
v -0.022525 0.374538 -0.156786
v -0.251296 0.374538 -0.156786
v -0.022525 -0.242338 0.152638
v -0.251296 -0.242338 0.152638
v 0.206245 0.374538 -0.156786
v -0.480065 0.066100 -0.156786
v 0.206245 -0.242338 0.152638
v 0.362839 0.293576 -0.156786
v -0.022525 -0.242338 -0.002074
v 0.435015 -0.242338 -0.156786
v 0.435015 0.066100 -0.156786
v 0.364223 0.289797 0.152638
v 0.206245 -0.242338 -0.002074
v 0.435015 -0.242338 0.152638
v 0.435015 0.066100 0.152638
v -0.413280 0.286678 0.152638
v -0.480065 -0.242338 0.152638
v -0.251296 -0.242338 -0.002074
v -0.022525 0.374538 0.152638
v -0.251296 0.374538 0.152638
v 0.206245 -0.242338 -0.156786
v -0.022525 -0.242338 -0.156786
v 0.206245 0.374538 0.152638
v -0.480065 0.066100 0.152638
v -0.251296 -0.242338 -0.156785
v 0.381601 -0.217568 0.366550
v 0.024249 -0.217568 0.366550
v 0.206245 -0.217568 0.366550
v 0.381601 0.090870 0.366550
v 0.024249 0.090870 0.366550
v 0.206245 0.090870 0.366550
v 0.162780 -0.063349 0.827927
v 0.371653 -0.066189 0.715797
v -0.424704 0.005419 0.403107
v -0.424704 -0.303019 0.403107
v -0.229298 -0.303019 0.403107
v -0.032542 0.005419 0.403107
v -0.032542 -0.303019 0.403107
v -0.229298 0.005419 0.403107
v -0.119392 -0.127107 1.009162
v -0.393318 -0.127107 0.750129
v 0.206245 -0.267778 -0.430613
v 0.283427 -0.267778 -0.430613
v 0.129063 -0.097520 -0.430613
v 0.129063 -0.267778 -0.430613
v 0.206245 -0.097520 -0.430613
v 0.283427 -0.097520 -0.430613
v -0.355569 0.056404 -0.377139
v -0.355569 -0.098682 -0.377139
v -0.251296 -0.098682 -0.377139
v -0.147022 -0.098682 -0.377139
v -0.147022 0.056404 -0.377139
v -0.251296 0.056404 -0.377139
v -0.050150 0.315898 0.265558
v -0.251644 0.392933 0.257997
v -0.045782 0.405385 0.197904
v -0.251644 0.434963 0.182976
v 0.191155 0.389511 0.257581
v -0.014326 0.312136 0.264511
v -0.002844 0.401623 0.197668
v 0.191155 0.433559 0.181071
v 0.050592 0.116379 0.319242
v -0.020191 0.088359 0.379983
v 0.050592 0.212310 0.384604
v -0.090975 0.116379 0.319242
v -0.090975 0.212310 0.384604
v 0.143401 0.051919 0.317661
v 0.143401 0.085735 0.355965
v 0.143401 0.240891 0.275686
v 0.077794 0.051919 0.317661
v 0.077794 0.240891 0.275686
v 0.077794 0.085735 0.355965
v 0.077794 0.274707 0.313989
v 0.143401 0.274707 0.313989
vn 1.0000 -0.0000 -0.0000
vn -0.0000 -0.7497 0.6618
vn -0.0000 -0.2168 -0.9762
vn -0.0000 0.2168 0.9762
vn -1.0000 -0.0000 -0.0000
vn -0.0000 0.7497 -0.6618
vn 0.0083 0.7399 -0.6727
vn 0.0092 0.7397 -0.6728
vn -0.0010 0.7389 -0.6738
vn -0.0000 0.2756 -0.9613
vn 0.9256 0.3784 -0.0000
vn -0.9345 0.3561 -0.0000
vn -0.0000 0.2709 0.9626
vn -0.0000 -1.0000 -0.0000
vn -0.0072 0.2082 0.9781
vn -0.0021 0.2057 0.9786
vn -0.0000 0.2002 0.9798
vn -0.0005 0.2143 -0.9768
vn 0.0098 0.2146 -0.9767
vn -0.0000 0.2137 -0.9769
vn -0.0000 0.7651 -0.6440
vn -0.4972 0.8649 -0.0687
vn -0.0000 0.2871 -0.9579
vn -0.0006 0.2078 0.9782
vn -0.0000 0.2084 0.9780
vn -0.0000 0.2708 0.9626
vn -0.0004 0.2132 -0.9770
vn -0.0002 0.7395 -0.6732
vn -0.0013 0.7384 -0.6744
vn 0.6179 -0.0000 -0.7863
vn -0.0000 -0.9225 0.3860
vn 0.0003 -0.9225 0.3861
vn 0.0002 -0.9192 0.3938
vn -0.0000 0.8447 0.5353
vn -0.0000 0.9893 -0.1461
vn -0.0000 -0.4156 -0.9095
vn -0.0000 -0.9779 0.2089
vn -0.0000 1.0000 -0.0000
vn -0.4767 0.8789 -0.0173
vn -0.9539 0.3001 -0.0000
vn -0.9539 0.3000 -0.0017
vn -0.9531 0.3025 -0.0039
vn 0.9531 0.3025 0.0001
vn 0.9531 0.3026 -0.0001
vn 0.9533 0.3022 -0.0007
vn 0.4608 0.8875 -0.0000
vn 0.4607 0.8875 0.0006
vn 0.4596 0.8881 0.0010
vn 0.9245 0.3811 -0.0000
vn -0.4929 0.8701 -0.0046
vn -0.4935 0.8698 -0.0054
vn -0.4983 0.8669 -0.0120
vn -0.9528 0.3037 -0.0014
vn -0.9527 0.3039 -0.0000
vn 0.4601 0.8879 0.0011
vn 0.4593 0.8883 -0.0000
vn 0.0660 0.7740 0.6298
vn -0.9253 0.3793 -0.0000
vn 0.6949 0.5545 0.4579
vn -0.4713 0.8689 0.1513
vn 0.9817 0.1476 0.1201
vn 0.9532 0.3023 -0.0009
vn 0.9534 0.3017 -0.0000
vn -0.9038 -0.0000 0.4280
vn -0.0000 -0.9484 0.3170
vn 0.7425 -0.0000 0.6699
vn -0.7846 -0.0000 0.6199
vn -0.0000 0.9484 0.3170
vn 0.9956 -0.0000 0.0938
vn -0.9578 -0.0000 0.2876
vn 0.9996 -0.0000 0.0285
vn -0.0000 0.9120 0.4101
vn -0.0000 -0.9175 0.3977
vn -0.9840 -0.0000 0.1784
vn 0.9041 -0.0000 0.4273
vn -0.0000 -0.0000 -1.0000
vn -0.8657 -0.0000 0.5005
vn 0.9946 -0.0000 0.1040
vn -0.0000 0.9225 -0.3860
vn 0.9899 -0.0000 0.1419
vn -0.0000 0.9769 0.2136
vn -0.0000 -0.9604 0.2788
vn -0.9959 -0.0000 0.0901
vn -0.0000 -0.8919 0.4521
vn -0.0000 0.9342 0.3568
vn -0.0000 -0.8447 -0.5353
vn -0.0000 0.5886 -0.8085
vn -0.6179 -0.0000 -0.7863
vn -0.4664 -0.0000 -0.8846
vn 0.4664 -0.0000 -0.8846
vn 0.0895 0.8689 0.4868
vn -0.0000 0.8264 -0.5631
vn -0.0269 0.0277 0.9993
vn -1.0000 -0.0039 -0.0026
vn -1.0000 -0.0041 -0.0026
vn -1.0000 -0.0045 -0.0025
vn -0.2009 0.6027 0.7723
vn -0.9284 0.2913 0.2306
vn -0.0071 -0.1269 0.9919
vn -0.1432 0.3996 -0.9054
vn 0.4553 0.8806 -0.1310
vn 0.0992 0.2182 -0.9708
vn 0.9329 0.2952 0.2065
vn -0.9430 0.3009 -0.1420
vn -0.1024 0.2073 0.9729
vn -0.0041 0.2072 0.9783
vn 0.0070 0.2063 -0.9785
vn 0.0252 0.7381 -0.6742
vn -0.0816 0.7625 -0.6418
vn -0.1285 0.2046 -0.9704
vn 0.1199 0.1987 0.9727
vn 0.0053 0.2193 -0.9756
vn -0.4895 0.8720 -0.0000
vn -0.9570 0.2897 -0.0160
vn 0.9532 0.3024 0.0002
vn 0.4726 0.8811 0.0153
vn 0.9299 0.2951 -0.2195
vn 0.4692 0.8747 0.1216
vn -0.9315 0.2820 0.2295
vn 0.9203 0.2063 0.3323
vn -0.0734 0.7635 0.6417
vn 0.9744 0.1950 0.1123
vn 0.1943 0.5855 0.7870
vn 0.1283 0.4456 -0.8860
vn 0.0013 -0.1455 0.9894
vn -1.0000 -0.0033 -0.0027
vn -0.0995 0.8623 0.4965
vn -0.9425 0.2576 0.2128
vn 0.0147 0.0503 0.9986
vn -0.0000 0.8569 -0.5154
vn 0.6818 -0.4119 0.6045
vn -0.0000 -0.0373 0.9993
vn -0.6818 -0.4119 0.6045
vn -0.0000 -0.9080 -0.4189
vn -0.0000 0.5631 -0.8264
vt 0.932026 0.216823
vt 0.908068 0.157535
vt 0.932026 0.157535
vt 0.882693 0.157535
vt 0.858735 0.132160
vt 0.882693 0.132160
vt 0.858735 0.216823
vt 0.833360 0.216823
vt 0.833360 0.157535
vt 0.858735 0.157535
vt 0.908068 0.216823
vt 0.882693 0.216823
vt 0.882693 0.242198
vt 0.858735 0.242198
vt 0.100291 0.776301
vt 0.007374 0.788464
vt 0.034353 0.727692
vt 0.164665 0.154051
vt 0.007374 0.120497
vt 0.102598 0.007374
vt 0.720719 0.450013
vt 0.749730 0.533312
vt 0.689018 0.509749
vt 0.325428 0.522166
vt 0.238403 0.510672
vt 0.293129 0.461994
vt 0.556808 0.649046
vt 0.489318 0.684573
vt 0.508386 0.629045
vt 0.458895 0.475754
vt 0.471100 0.562835
vt 0.421266 0.522803
vt 0.504914 0.429672
vt 0.523399 0.307562
vt 0.565812 0.389459
vt 0.725533 0.597711
vt 0.615223 0.606419
vt 0.679099 0.567384
vt 0.594672 0.456578
vt 0.640263 0.364023
vt 0.651704 0.440381
vt 0.242319 0.411075
vt 0.129292 0.332198
vt 0.226129 0.291768
vt 0.165140 0.693042
vt 0.172630 0.553959
vt 0.231632 0.613285
vt 0.280217 0.558973
vt 0.502653 0.523263
vt 0.512947 0.590425
vt 0.558897 0.700310
vt 0.545232 0.489650
vt 0.613468 0.271409
vt 0.099595 0.639635
vt 0.573713 0.171437
vt 0.544452 0.035975
vt 0.680500 0.117253
vt 0.615938 0.506823
vt 0.646794 0.506034
vt 0.623771 0.520409
vt 0.535483 0.621385
vt 0.559595 0.625717
vt 0.264322 0.360391
vt 0.272312 0.395541
vt 0.346372 0.391076
vt 0.307268 0.414611
vt 0.304667 0.388324
vt 0.464597 0.205554
vt 0.367809 0.130684
vt 0.398845 0.098238
vt 0.334565 0.441588
vt 0.372001 0.478459
vt 0.651164 0.490908
vt 0.471483 0.085999
vt 0.716496 0.242614
vt 0.447534 0.614850
vt 0.334459 0.822657
vt 0.183482 0.841887
vt 0.248108 0.758801
vt 0.396852 0.734338
vt 0.349109 0.621348
vt 0.428728 0.665856
vt 0.309351 0.677620
vt 0.449718 0.363826
vt 0.363813 0.290791
vt 0.383066 0.574163
vt 0.818612 0.359835
vt 0.730068 0.354844
vt 0.267960 0.907640
vt 0.135247 0.902729
vt 0.803344 0.146136
vt 0.406747 0.427279
vt 0.578688 0.549088
vt 0.535387 0.564811
vt 0.050750 0.836434
vt 0.268145 1.000520
vt 0.319454 0.966968
vt 0.404680 0.855923
vt 0.396222 0.868065
vt 0.330580 0.936068
vt 0.789608 0.475477
vt 0.833360 0.446651
vt 0.905110 0.394874
vt 0.905306 0.469356
vt 0.601689 0.546197
vt 0.632738 0.547953
vt 0.629861 0.581521
vt 0.661429 0.556708
vt 0.631128 0.546865
vt 0.833360 0.371049
vt 0.634863 0.546260
vt 0.674391 0.526034
vt 0.646562 0.532792
vt 0.646110 0.530731
vt 0.647546 0.532051
vt 0.842531 0.283415
vt 0.911932 0.338300
vt 0.833360 0.356300
vt 0.911932 0.256946
vt 0.302736 0.142710
vt 0.583546 0.602647
vt 0.567180 0.574368
vt 0.297481 0.098470
vt 0.391492 0.032928
vt 0.559432 0.603631
vt 0.558991 0.605121
vt 0.548106 0.585842
vt 0.563851 0.603088
vt 0.532287 0.596458
vt 0.552404 0.617132
vt 0.550951 0.617175
vt 0.553957 0.625881
vt 0.284634 0.044957
vt 0.283058 0.420767
vt 0.301387 0.355176
vt 0.449320 0.780889
vt 0.367090 0.824718
vt 0.410167 0.755150
vt 0.643155 0.676809
vt 0.572076 0.732850
vt 0.346814 0.851545
vt 0.389648 0.873807
vt 0.658797 0.667196
vt 0.650188 0.662714
vt 0.292987 0.908883
vt 0.061559 0.200911
vt 0.178428 0.452219
vt 0.815083 0.229474
vt 0.217532 0.967538
vt 0.478287 0.754364
vt 0.742816 0.627553
vt 0.833360 0.742300
vt 0.873113 0.766266
vt 0.873113 0.721312
vt 0.833360 0.592107
vt 0.833360 0.646861
vt 0.869016 0.619484
vt 0.833360 0.522604
vt 0.879779 0.522604
vt 0.856569 0.484105
vt 0.876789 0.661609
vt 0.833360 0.694955
vt 0.876789 0.706563
vt 0.833360 0.577358
vt 0.879779 0.577358
vt 0.932026 0.092037
vt 0.908068 0.032749
vt 0.932026 0.032749
vt 0.882693 0.032749
vt 0.858735 0.007374
vt 0.882693 0.007374
vt 0.858735 0.092037
vt 0.833360 0.092037
vt 0.833360 0.032749
vt 0.858735 0.032749
vt 0.908068 0.092037
vt 0.882693 0.092037
vt 0.882693 0.117412
vt 0.858735 0.117412
s 1
usemtl enemy
f 3/1/1 2/2/1 1/3/1
f 6/4/2 1/5/2 2/6/2
f 5/7/3 3/8/3 1/9/3
f 5/7/3 1/9/3 4/10/3
f 6/4/2 4/10/2 1/5/2
f 8/11/4 6/4/4 2/2/4
f 8/11/4 7/12/4 6/4/4
f 6/4/5 7/12/5 5/7/5
f 6/4/5 5/7/5 4/10/5
f 3/1/1 8/11/1 2/2/1
f 8/13/6 3/14/6 5/7/6
f 8/13/6 5/7/6 7/12/6
f 54/15/7 12/16/8 25/17/9
f 38/18/10 12/19/10 29/20/10
f 64/21/11 11/22/11 32/23/11
f 55/24/12 10/25/12 31/26/12
f 36/27/13 9/28/13 30/29/13
f 67/30/14 66/31/14 41/32/14
f 58/33/14 70/34/14 62/35/14
f 27/36/15 33/37/16 37/38/17
f 56/39/14 42/40/14 63/41/14
f 35/42/18 17/43/19 34/44/20
f 50/45/21 23/46/21 51/47/21
f 51/47/22 10/25/22 48/48/22
f 10/25/23 35/42/23 31/26/23
f 53/49/14 13/50/14 66/31/14
f 33/37/16 21/51/24 36/27/25
f 52/52/14 67/30/14 58/33/14
f 11/22/26 37/38/26 32/23/26
f 42/40/14 70/34/14 59/53/14
f 17/43/19 38/18/27 34/44/20
f 50/45/28 25/17/9 17/54/29
f 14/55/30 96/56/30 29/57/30
f 28/58/31 75/59/32 77/60/33
f 36/27/34 83/61/34 88/62/34
f 35/42/35 101/63/35 102/64/35
f 24/65/36 98/66/36 99/67/36
f 26/68/37 94/69/37 91/70/37
f 55/24/5 15/71/5 49/72/5
f 64/21/1 16/73/1 63/41/1
f 26/68/37 92/74/37 14/55/37
f 52/52/14 62/35/14 56/39/14
f 59/53/14 26/68/14 14/55/14
f 60/75/1 42/40/1 59/53/1
f 73/76/5 41/32/5 66/31/5
f 68/77/38 45/78/38 43/79/38
f 28/58/14 63/41/14 16/73/14
f 69/80/39 39/81/39 65/82/39
f 68/77/38 44/83/38 69/80/38
f 71/84/14 24/65/14 20/85/14
f 73/76/40 39/81/41 46/86/42
f 71/84/14 26/68/14 70/34/14
f 60/75/43 40/87/44 47/88/45
f 72/89/46 40/90/47 45/78/48
f 12/91/49 60/75/49 29/57/49
f 29/57/1 59/53/1 14/55/1
f 74/92/14 41/32/14 49/72/14
f 46/86/5 49/72/5 41/32/5
f 43/79/38 54/15/38 50/45/38
f 19/93/14 56/39/14 28/58/14
f 39/81/50 51/47/51 48/48/52
f 43/79/38 51/47/38 44/83/38
f 24/65/14 49/72/14 15/71/14
f 53/49/14 19/93/14 22/94/14
f 46/86/42 48/48/53 55/24/54
f 58/33/14 74/92/14 71/84/14
f 45/78/48 57/95/55 54/15/56
f 11/96/57 72/89/57 27/97/57
f 9/28/58 73/76/58 30/29/58
f 68/77/59 103/98/59 18/99/59
f 9/28/60 69/80/60 65/82/60
f 72/89/61 107/100/61 27/97/61
f 30/29/5 66/31/5 13/50/5
f 47/88/1 63/41/1 42/40/1
f 47/88/45 61/101/62 64/21/63
f 80/102/64 77/103/64 82/104/64
f 76/105/65 77/60/65 81/106/65
f 32/23/66 75/59/66 16/73/66
f 33/37/67 76/105/67 79/107/67
f 80/108/68 79/107/68 81/109/68
f 77/103/69 80/102/69 81/110/69
f 79/107/70 76/105/70 81/111/70
f 75/59/71 78/112/71 82/113/71
f 78/112/72 80/108/72 82/114/72
f 77/60/33 75/59/32 82/115/73
f 88/116/74 85/117/74 89/118/74
f 85/117/75 88/116/75 90/119/75
f 93/120/76 91/70/76 94/69/76
f 13/50/77 83/61/77 30/29/77
f 19/93/78 86/121/78 87/122/78
f 95/123/76 92/124/76 91/70/76
f 37/38/79 79/107/79 80/108/79
f 87/122/80 86/121/80 89/125/80
f 86/121/81 88/62/81 89/126/81
f 85/127/82 87/122/82 89/128/82
f 83/61/83 84/129/83 90/130/83
f 84/129/84 85/127/84 90/131/84
f 88/62/85 83/61/85 90/132/85
f 85/127/86 84/129/86 22/94/86
f 38/18/87 93/120/87 34/44/87
f 38/18/87 96/133/87 95/123/87
f 20/85/88 93/120/88 94/69/88
f 97/134/76 99/67/76 98/66/76
f 102/64/76 100/135/76 99/67/76
f 31/26/89 98/66/89 15/71/89
f 34/44/90 100/135/90 101/63/90
f 24/65/36 100/135/36 20/85/36
f 35/42/35 97/134/35 31/26/35
f 104/136/91 105/137/91 106/138/91
f 69/80/92 105/137/92 68/77/92
f 21/51/93 103/139/93 104/140/93
f 69/80/94 104/136/95 106/138/96
f 107/100/97 109/141/97 108/142/97
f 68/77/98 108/142/98 109/141/98
f 27/36/99 108/143/99 18/144/99
f 72/89/100 109/141/100 110/145/100
f 54/15/101 57/95/101 12/16/101
f 38/18/102 25/146/102 12/19/102
f 64/21/103 61/101/103 11/22/103
f 55/24/104 48/48/104 10/25/104
f 36/27/105 21/51/105 9/28/105
f 67/30/14 53/49/14 66/31/14
f 58/33/14 71/84/14 70/34/14
f 27/36/15 18/144/106 33/37/16
f 56/39/14 62/35/14 42/40/14
f 35/42/18 23/147/107 17/43/19
f 50/45/108 17/54/108 23/46/108
f 51/47/109 23/46/109 10/25/109
f 10/25/110 23/147/110 35/42/110
f 53/49/14 22/94/14 13/50/14
f 33/37/16 18/144/106 21/51/24
f 52/52/14 53/49/14 67/30/14
f 11/22/111 27/36/111 37/38/111
f 42/40/14 62/35/14 70/34/14
f 17/43/19 25/146/112 38/18/27
f 50/45/28 54/15/7 25/17/9
f 14/55/30 92/74/30 96/56/30
f 76/105/31 19/93/31 28/58/31
f 28/58/31 16/73/31 75/59/32
f 77/60/33 76/105/31 28/58/31
f 86/121/34 33/37/34 88/62/34
f 33/37/34 36/27/34 88/62/34
f 36/27/34 30/29/34 83/61/34
f 35/42/35 34/44/35 101/63/35
f 24/65/36 15/71/36 98/66/36
f 26/68/37 20/85/37 94/69/37
f 55/24/5 31/26/5 15/71/5
f 64/21/1 32/23/1 16/73/1
f 26/68/37 91/70/37 92/74/37
f 52/52/14 58/33/14 62/35/14
f 59/53/14 70/34/14 26/68/14
f 60/75/1 47/88/1 42/40/1
f 73/76/5 46/86/5 41/32/5
f 68/77/38 72/89/38 45/78/38
f 28/58/14 56/39/14 63/41/14
f 69/80/113 44/83/113 39/81/50
f 68/77/38 43/79/38 44/83/38
f 71/84/14 74/92/14 24/65/14
f 73/76/114 65/82/114 39/81/114
f 71/84/14 20/85/14 26/68/14
f 60/75/43 57/148/115 40/87/44
f 72/89/116 61/149/116 40/90/116
f 12/91/117 57/148/117 60/75/117
f 29/57/1 60/75/1 59/53/1
f 74/92/14 67/30/14 41/32/14
f 46/86/5 55/24/5 49/72/5
f 43/79/38 45/78/38 54/15/38
f 19/93/14 52/52/14 56/39/14
f 39/81/50 44/83/113 51/47/51
f 43/79/38 50/45/38 51/47/38
f 24/65/14 74/92/14 49/72/14
f 53/49/14 52/52/14 19/93/14
f 46/86/42 39/81/41 48/48/53
f 58/33/14 67/30/14 74/92/14
f 45/78/48 40/90/47 57/95/55
f 11/96/118 61/149/118 72/89/118
f 9/28/119 65/82/119 73/76/119
f 68/77/120 105/137/120 103/98/120
f 9/28/121 21/150/121 69/80/121
f 72/89/122 110/145/122 107/100/122
f 30/29/5 73/76/5 66/31/5
f 47/88/1 64/21/1 63/41/1
f 47/88/45 40/87/44 61/101/62
f 32/23/66 78/112/66 75/59/66
f 33/37/67 19/93/67 76/105/67
f 93/120/76 95/123/76 91/70/76
f 13/50/77 84/129/77 83/61/77
f 19/93/78 33/37/78 86/121/78
f 95/123/76 96/133/76 92/124/76
f 37/38/79 33/37/79 79/107/79
f 80/108/79 78/112/79 37/38/79
f 78/112/79 32/23/79 37/38/79
f 84/129/86 13/50/86 22/94/86
f 22/94/86 19/93/86 85/127/86
f 19/93/86 87/122/86 85/127/86
f 38/18/87 95/123/87 93/120/87
f 38/18/87 29/20/87 96/133/87
f 20/85/88 34/44/88 93/120/88
f 97/134/76 102/64/76 99/67/76
f 102/64/76 101/63/76 100/135/76
f 31/26/89 97/134/89 98/66/89
f 34/44/90 20/85/90 100/135/90
f 24/65/36 99/67/36 100/135/36
f 35/42/35 102/64/35 97/134/35
f 104/136/123 103/98/123 105/137/123
f 69/80/124 106/138/124 105/137/124
f 21/51/125 18/144/125 103/139/125
f 69/80/94 21/150/126 104/136/95
f 107/100/127 110/145/127 109/141/127
f 68/77/128 18/99/128 108/142/128
f 27/36/129 107/151/129 108/143/129
f 72/89/130 68/77/130 109/141/130
f 111/152/131 113/153/131 112/154/131
f 113/155/132 115/156/132 112/157/132
f 115/158/133 114/159/133 112/160/133
f 114/161/134 111/162/134 112/163/134
f 115/158/135 113/164/135 111/165/135
f 115/158/135 111/165/135 114/159/135
f 118/166/1 117/167/1 116/168/1
f 121/169/2 116/170/2 117/171/2
f 120/172/3 118/173/3 116/174/3
f 120/172/3 116/174/3 119/175/3
f 121/169/2 119/175/2 116/170/2
f 123/176/4 121/169/4 117/167/4
f 123/176/4 122/177/4 121/169/4
f 121/169/5 122/177/5 120/172/5
f 121/169/5 120/172/5 119/175/5
f 118/166/1 123/176/1 117/167/1
f 123/178/6 118/179/6 120/172/6
f 123/178/6 120/172/6 122/177/6
