# Blender 4.4.1
# www.blender.org
mtllib startFlag.mtl
o 立方体
v 0.061559 -0.282330 -0.164458
v 0.061559 0.565136 -0.164458
v 0.061559 -0.282330 0.103754
v 0.061559 0.565136 0.103754
v -0.042030 -0.282330 -0.164458
v -0.042030 0.565136 -0.164458
v -0.042029 -0.282330 0.103754
v -0.042029 0.565136 0.103754
v -0.052540 0.179441 -0.181401
v -0.052540 0.536358 -0.181401
v -0.052540 0.179441 0.354946
v -0.052540 0.536358 0.354946
v -0.607122 0.179441 -0.181401
v -0.607122 0.536358 -0.181401
v -0.607122 0.179441 0.354946
v -0.607122 0.536358 0.354946
vn 1.0000 -0.0000 -0.0000
vn -0.0000 -0.0000 1.0000
vn -1.0000 -0.0000 -0.0000
vn -0.0000 -0.0000 -1.0000
vn -0.0000 -1.0000 -0.0000
vn -0.0000 1.0000 -0.0000
vt 0.994486 0.060151
vt 0.994487 0.507149
vt 0.927819 0.507149
vt 0.927819 0.060151
vt 0.873181 0.507149
vt 0.873181 0.060151
vt 0.806513 0.507149
vt 0.806513 0.060151
vt 0.751875 0.507149
vt 0.751875 0.060151
vt 0.873181 0.005514
vt 0.806513 0.005514
vt 0.873181 0.561787
vt 0.806513 0.561787
vt 0.138631 0.740848
vt 0.005513 0.607731
vt 0.099783 0.513461
vt 0.232900 0.646579
vt 0.306622 0.306622
vt 0.439739 0.439740
vt 0.400891 0.212353
vt 0.534009 0.345471
vt 0.607731 0.005514
vt 0.740848 0.138631
vt 0.646579 0.646579
vt 0.740848 0.552310
vt 0.099783 0.099783
vt 0.194052 0.005514
s 0
usemtl Flag
f 1/1/1 2/2/1 4/3/1 3/4/1
f 3/4/2 4/3/2 8/5/2 7/6/2
f 7/6/3 8/5/3 6/7/3 5/8/3
f 5/8/4 6/7/4 2/9/4 1/10/4
f 3/11/5 7/6/5 5/8/5 1/12/5
f 8/5/6 4/13/6 2/14/6 6/7/6
f 9/15/1 10/16/1 12/17/1 11/18/1
f 11/18/2 12/17/2 16/19/2 15/20/2
f 15/20/3 16/19/3 14/21/3 13/22/3
f 13/22/4 14/21/4 10/23/4 9/24/4
f 11/25/5 15/20/5 13/22/5 9/26/5
f 16/19/6 12/27/6 10/28/6 14/21/6
